<?xml version="1.0" encoding="utf-8"?>
<?xml-stylesheet type="text/xsl" href="rss1.xsl"?>
<rss version="2.0" xmlns:atom="http://www.w3.org/2005/Atom" xmlns:content="http://purl.org/rss/1.0/modules/content/" xmlns:dc="http://purl.org/dc/elements/1.1/" xmlns:media="http://search.yahoo.com/mrss/">
<channel>
 <title>Getty</title>
 <link>http://www.gettyimg.com/</link>
 <atom:link href="http://www.gettyimg.com/" rel="self" type="application/rss+xml" />

 
                <item>
                <title><![CDATA[【SD Live Performances】WEB-DL - Lara Fabian &amp; Laura Pausini - La Solitudine (Live 2002)]]></title>
                <link><![CDATA[https://sharemania.us/threads/lara-fabian-laura-pausini-la-solitudine-live-2002.230314/]]></link>
                <description><![CDATA[<article>
<blockquote class="messageText SelectQuoteContainer ugc baseHtml">
<div style="text-align: center"><img src="https://i.postimg.cc/1tGcRRs8/lara-laura.jpg" class="bbCodeImage LbImage" alt="[​IMG]" data-url="https://i.postimg.cc/1tGcRRs8/lara-laura.jpg" style=""> <br>
<img src="https://i.postimg.cc/90sPXDsH/Lara-Fabian-Laura-Pausini-La-Solitudine-Live-2002-mp4-thumbs.jpg" class="bbCodeImage LbImage" alt="[​IMG]" data-url="https://i.postimg.cc/90sPXDsH/Lara-Fabian-Laura-Pausini-La-Solitudine-Live-2002-mp4-thumbs.jpg" style=""> <br>
<div class="bbCodeBlock bbCodeVfcHH HiddenContent">
<div class="attribution type">Hidden Content:</div>
<blockquote>You must either reply or click 'Like' to see the hidden information contained here.</blockquote>
</div></div>
<div class="messageTextEndMarker">&nbsp;</div>
</blockquote>
</article>]]></description>
                <author><![CDATA[Fan Made]]></author>
                </item>

                
                <item>
                <title><![CDATA[【Apple Music】WEB-RiP - Troye Sivan - One of Your Girls |Apple Music Web 4K|]]></title>
                <link><![CDATA[https://sharemania.us/threads/troye-sivan-one-of-your-girls-apple-music-web-4k.230315/]]></link>
                <description><![CDATA[<article>
<blockquote class="messageText SelectQuoteContainer ugc baseHtml">
<div style="text-align: center"><img src="https://i.imgur.com/4orO67B.gif" class="bbCodeImage LbImage" alt="[​IMG]" data-url="https://i.imgur.com/4orO67B.gif" style=""><br>
<img src="https://i.postimg.cc/k5WnYdcc/53-removebg-preview-removebg-preview.png" class="bbCodeImage LbImage" alt="[​IMG]" data-url="https://i.postimg.cc/k5WnYdcc/53-removebg-preview-removebg-preview.png" style=""><br>
​</div>
<div class="ToggleTriggerAnchor bbCodeSpoilerContainer">
<button type="button" class="button bbCodeSpoilerButton ToggleTrigger Tooltip JsOnly" data-target="> .SpoilerTarget"><span>Spoiler: <span class="SpoilerTitle">Apple Music</span></span></button>
<div class="SpoilerTarget bbCodeSpoilerText">
<div class="bbCodeBlock bbCodeCode">
<div class="type">Code:</div>
<pre>Format                                   : MPEG-4
Format profile                           : Base Media
Codec ID                                 : isom (isom/iso2/mp41)
File size                                : 462 MiB
Duration                                 : 3 min 9 s
Overall bit rate mode                    : Variable
Overall bit rate                         : 20.5 Mb/s
Movie name                               : One Of Your Girls
Performer                                : Troye Sivan
Genre                                    : Pop
ContentType                              : Music Video
Recorded date                            : 2023-10-13
ISRC                                     : AUUV72300291

Video
ID                                       : 1
Format                                   : HEVC
Format/Info                              : High Efficiency Video Coding
Format profile                           : Main 10@L5@High
Codec ID                                 : hvc1
Codec ID/Info                            : High Efficiency Video Coding
Duration                                 : 3 min 9 s
Duration_FirstFrame                      : 42 ms
Bit rate                                 : 20.2 Mb/s
Width                                    : 2 880 pixels
Height                                   : 2 160 pixels
Display aspect ratio                     : 4:3
Frame rate mode                          : Constant
Frame rate                               : 24.000 FPS
Color space                              : YUV
Chroma subsampling                       : 4:2:0
Bit depth                                : 10 bits
Scan type                                : Progressive
Bits/(Pixel*Frame)                       : 0.135
Stream size                              : 456 MiB (99%)
Title                                    : Core Media Video
Language                                 : English
Color range                              : Limited
Color primaries                          : BT.709
Transfer characteristics                 : BT.709
Matrix coefficients                      : BT.709
Codec configuration box                  : hvcC

Audio
ID                                       : 2
Format                                   : AAC LC
Format/Info                              : Advanced Audio Codec Low Complexity
Codec ID                                 : mp4a-40-2
Duration                                 : 3 min 9 s
Bit rate mode                            : Constant
Bit rate                                 : 255 kb/s
Channel(s)                               : 2 channels
Channel layout                           : L R
Sampling rate                            : 48.0 kHz
Frame rate                               : 46.875 FPS (1024 SPF)
Compression mode                         : Lossy
Stream size                              : 5.75 MiB (1%)
Title                                    : Core Media Audio
Default                                  : Yes
Alternate group                          : 1

Text
ID                                       : 3
Format                                   : Timed Text
Muxing mode                              : sbtl
Codec ID                                 : tx3g
Duration                                 : 2 min 55 s
Bit rate mode                            : Variable
Bit rate                                 : 75 b/s
Stream size                              : 1.62 KiB (0%)
Default                                  : Yes
Forced                                   : No
Alternate group                          : 3
</pre>
</div><div style="text-align: center">​</div></div>
</div><div style="text-align: center"><br>
<br>
<div class="bbCodeBlock bbCodeVfcHH HiddenContent">
<div class="attribution type">Hidden Content:</div>
<blockquote>You must reply before you can see the hidden data contained here.</blockquote>
</div></div>
<div class="messageTextEndMarker">&nbsp;</div>
</blockquote>
</article>]]></description>
                <author><![CDATA[fstambuk]]></author>
                </item>

                </channel></rss>